inDegrees=yes
name=ik_XSDot_20210820_202113_orientations
DataType=double
version=3
OpenSimVersion=4.5
endheader
time	pelvis_tilt	pelvis_list	pelvis_rotation	pelvis_tx	pelvis_ty	pelvis_tz	hip_flexion_r	hip_adduction_r	hip_rotation_r	knee_angle_r	knee_angle_r_beta	ankle_angle_r	subtalar_angle_r	mtp_angle_r	hip_flexion_l	hip_adduction_l	hip_rotation_l	knee_angle_l	knee_angle_l_beta	ankle_angle_l	subtalar_angle_l	mtp_angle_l	lumbar_extension	lumbar_bending	lumbar_rotation	arm_flex_r	arm_add_r	arm_rot_r	elbow_flex_r	pro_sup_r	wrist_flex_r	wrist_dev_r	arm_flex_l	arm_add_l	arm_rot_l	elbow_flex_l	pro_sup_l	wrist_flex_l	wrist_dev_l
0.4700000000000003	-0.1809679788064882	-0.2005798549826064	-9.694740007851902	0	0.9399999999999999	0	0.3877981677781446	0.3132211358631365	0.01203974196396528	0.4792388074489604	0.008364295093315486	-2.321663458789093	0	0	0.5015816109639274	-0.2721388409004189	-0.1779647164362931	0.5532372341062118	0.009655811279780066	-2.321663458789093	0	0	0	0	0	0	-1.073477484396788	0	53.83707984819813	52.14715719578449	0	0	0	-1.073477484396788	0	53.83707984819813	52.14715719578449	0	0
0.4800000000000003	-0.1894915430172323	-0.1465941067710955	-9.686905801732893	0	0.9399999999999999	0	0.4052495372709615	0.2777132885940136	0.004413021065398025	0.4700500418381494	0.008203920879212805	-2.324295970349789	0	0	0.5194566591383737	-0.2315315891708631	-0.1736899262613535	0.5586153555908574	0.009749677207259376	-2.324295970349789	0	0	0	0	0	0	-1.075064491469609	0	53.84208229282017	52.14278532310387	0	0	0	-1.075064491469609	0	53.84208229282017	52.14278532310387	0	0
0.4900000000000003	-0.1917725439987916	-0.1164808504980043	-9.683149923293877	0	0.9399999999999999	0	0.4093257430335926	0.2653214180126303	-0.003015461237948338	0.4679357762138684	0.00816701998280737	-2.326203313465317	0	0	0.5341090151761265	-0.2084510626964889	-0.1725968777949937	0.5586718608813153	0.009750663410622661	-2.326203313465317	0	0	0	0	0	0	-1.076216860419812	0	53.84571220866436	52.1396159613949	0	0	0	-1.076216860419812	0	53.84571220866436	52.1396159613949	0	0
0.5000000000000002	-0.1892387807510672	-0.08696574161377466	-9.678425650064321	0	0.9399999999999999	0	0.4106026122123216	0.2489307687874239	-0.0131180616981065	0.4672018770975011	0.008154211026849283	-2.32807258094827	0	0	0.5437181524932232	-0.1846364810152859	-0.169439826095639	0.5600566272081973	0.009774832142397501	-2.32807258094827	0	0	0	0	0	0	-1.077344635975556	0	53.84926617063624	52.13651093516572	0	0	0	-1.077344635975556	0	53.84926617063624	52.13651093516572	0	0
0.5100000000000002	-0.1850518990201443	-0.04897000763729451	-9.669005563151403	0	0.9399999999999999	0	0.4067500045249757	0.2357677913374367	-0.02395871398323326	0.4632417648751079	0.008085094029820052	-2.330262591179514	0	0	0.5590456308500532	-0.1420796872889497	-0.163368338258897	0.5618555681904271	0.009806229585586473	-2.330262591179514	0	0	0	0	0	0	-1.078668650793278	0	53.85343666034016	52.13287052222832	0	0	0	-1.078668650793278	0	53.85343666034016	52.13287052222832	0	0
0.5200000000000002	-0.1878334704984088	-0.02065718482717831	-9.667045025802576	0	0.9399999999999999	0	0.4060352532523965	0.2286116840319388	-0.03282681724772264	0.4621004833365355	0.008065174909279736	-2.33191011475277	0	0	0.5701103447439249	-0.1214242310404774	-0.1546043528065532	0.5630700563359698	0.009827426402452632	-2.33191011475277	0	0	0	0	0	0	-1.079662309715411	0	53.85656829700399	52.13013399251523	0	0	0	-1.079662309715411	0	53.85656829700399	52.13013399251523	0	0
0.5300000000000002	-0.1889359229581988	0.01514485925063258	-9.658092228116658	0	0.9399999999999999	0	0.409104875568385	0.2107257974648227	-0.0389185988382451	0.4597178497301398	0.008023590107979464	-2.33408875216633	0	0	0.5934116474303095	-0.07002756125317032	-0.139909066667639	0.5649950184925937	0.009861023330062009	-2.33408875216633	0	0	0	0	0	0	-1.080992157235666	0	53.86074576693398	52.12650272716365	0	0	0	-1.080992157235666	0	53.86074576693398	52.12650272716365	0	0
0.5400000000000003	-0.1910632770321967	0.04486563536328134	-9.654719365777046	0	0.9399999999999999	0	0.4124325883447952	0.1797816595488342	-0.05378969587985372	0.4681755926033299	0.008171205568403717	-2.335467408125437	0	0	0.6188081391786268	-0.03509262842769028	-0.1200858106530531	0.5669430617833157	0.009895023099456493	-2.335467408125437	0	0	0	0	0	0	-1.08184309430901	0	53.86341028502097	52.12419772018819	0	0	0	-1.08184309430901	0	53.86341028502097	52.12419772018819	0	0
0.5500000000000003	-0.1894251120437913	0.1047951340619782	-9.630645371904391	0	0.9399999999999999	0	0.4201344673433103	0.1251783254210049	-0.07558503185843297	0.4535443164844903	0.007915841626361549	-2.337750221982618	0	0	0.6365108560248436	0.04662125013550339	-0.08952524759157605	0.5752447922640495	0.01003991562995847	-2.337750221982618	0	0	0	0	0	0	-1.083256555231585	0	53.86783293409272	52.12037730779423	0	0	0	-1.083256555231585	0	53.86783293409272	52.12037730779423	0	0
0.5600000000000003	-0.1955326841972232	0.1380203313123054	-9.614195157102488	0	0.9399999999999999	0	0.4314974653518103	0.08504824399397456	-0.09504048331087186	0.4560781216303916	0.007960064868761503	-2.339405312524667	0	0	0.6590755873148381	0.08543350150911613	-0.06667552638679979	0.57811478032075	0.01009000637104081	-2.339405312524667	0	0	0	0	0	0	-1.084287603855869	0	53.87105100060644	52.11760460684661	0	0	0	-1.084287603855869	0	53.87105100060644	52.11760460684661	0	0
